<svg xmlns="http://www.w3.org/2000/svg" viewBox="0 0 1366 768"><defs><style>.cls-1{fill:#d2faff;}.cls-2{fill:#d5ff61;}.cls-3{fill:#d8ff48;}.cls-4{fill:#bbe055;}.cls-5{fill:#cea16a;}.cls-6{fill:#edfafc;}.cls-7{fill:#d7ecf4;}.cls-8{fill:#fff;}.cls-9{fill:#aac44b;}.cls-10{fill:#cded5a;}</style></defs><title>baggrund-natur</title><g id="Layer_3" data-name="Layer 3"><rect class="cls-1" width="1366" height="768"/></g><g id="Layer_2" data-name="Layer 2"><path class="cls-2" d="M493.15,0h-212A122.6,122.6,0,0,1,288,40.5c0,31-11.54,59.42-30.82,81.8a153.14,153.14,0,0,0,165.88,26.14C424.39,90.47,450.93,38.11,493.15,0Z"/><path class="cls-2" d="M1057.75,0H829.85C873.18,39.11,900,93.22,900,153a196.86,196.86,0,0,1-4.77,43.16A176,176,0,0,0,1075.77,162c-22.14-25.72-35.41-58.4-35.41-94A141.52,141.52,0,0,1,1057.75,0Z"/><path class="cls-3" d="M978.32,73.15a151.58,151.58,0,0,0-85.76,26.13C881.76,61.09,859.73,27,829.85,0H493.15C467.4,23.24,447.5,51.78,435.58,83.66,412.52,59.92,379.14,45,342,45c-69.59,0-126,52.38-126,117s56.41,117,126,117c40,0,75.61-17.29,98.69-44.26C476.27,313.5,561.72,369,661.5,369c79.94,0,150.69-35.63,194-90.31,25.58,38,71,63.31,122.86,63.31,79.95,0,144.77-60.18,144.77-134.43S1058.27,73.15,978.32,73.15Z"/><path class="cls-4" d="M257.18,122.3C276.46,99.92,288,71.48,288,40.5A122.6,122.6,0,0,0,281.14,0H0V224.06a97.28,97.28,0,0,0,13.5.94,98.9,98.9,0,0,0,43.6-10.18c11,36.9,49.75,64.18,95.9,64.18,54.68,0,99-38.28,99-85.5,0-18.5-6.81-35.63-18.38-49.63A136.24,136.24,0,0,0,257.18,122.3Z"/><path class="cls-4" d="M1343.53,0H1057.75a141.52,141.52,0,0,0-17.39,68c0,35.59,13.27,68.27,35.41,94a156.87,156.87,0,0,0,27.07,24.78c-13.29,16.07-21.12,35.76-21.12,57,0,54.25,50.93,98.23,113.75,98.23,53,0,97.58-31.34,110.18-73.74a112.65,112.65,0,0,0,62.35,11V0Z"/><path class="cls-5" d="M823.12,419.45q13.53,7.91,27.66,16.34l7.08,4.23c2.37,1.42,4.74,2.87,7.18,4.21l14.67,8.29,29.81,17c2.49,1.46,5.05,2.8,7.6,4.17l7.66,4.1L940.13,486c40.85,22.18,82.94,42.26,121.56,59.16l4.34,1.92,4.4,1.81,8.85,3.63,17.78,7.32,17.91,7.42,4.49,1.86,4.55,1.74,9.11,3.5,36.63,14.16c3,1.23,6.16,2.28,9.25,3.39l9.29,3.32,18.59,6.66,18.58,6.67c6.22,2.12,12.48,4.13,18.71,6.19l37.28,12.3,37.23,11.17c6.16,1.83,12.28,3.72,18.41,5.5l18.39,5c-.24.88-8.74,0-.72,2.63,32.21,10.1,31.78,11.87,31.33,13.63-.23.88-24.49-6.61-16.56-3.53l-20.19-5.36-10-2.6c-3.17-.81-6.13-1.53-8.66-2.27-10.2-2.83-14.35-3.72-2.31.37,3.9,1.77,14.15,4.41,24.35,7.25s20.38,5.68,24.3,7.44c7.85,3.54-8.87.43-1,4l7.43,2,4.39,1.18,4.61,1.1,16.52,4c8,2.86-8.91.67-.65,2.65,6.15,1.7,12.83,3.45,19.92,5.24s14.55,3.7,22.37,5.24l48.89,10.12c-.08.44,1.92,1.29,1.84,1.68,0,.2-.58.28-2.17.14s-4.22-.57-8.41-1.33A2028.58,2028.58,0,0,1,1061,567.46c-138.34-61-269.82-137.63-389-227.13-27.21-20.49-5.49-6.83,15.88,7.14-7.12-4.66-6.31-5.75-13.45-10.42.41-.54,4.38,1.24,11.7,5.62q5.49,3.27,13.47,8.54c5.32,3.5,11.37,7.8,18.48,12.44-7.05-4.72-13.81-9.84-20.68-14.84-6.57-5.38.8-1.1,1.33-1.84,6.85,5,13.68,10,13.94,9.65l1.05-1.48-27.31-20c6.82,5,13.65,10,13.92,9.63l1.06-1.48c3.48,2.41,7.33,5.2,11.38,8.17,2,1.52,4.12,3,6.25,4.48l6.46,4.54c8.63,6.09,17.27,12.18,24.37,16.8l.76-1.13c-6.83-5-15.53-11-24.25-16.92l-6.53-4.44c-2.16-1.46-4.3-2.89-6.31-4.38l-11.33-8.22c7.09,4.63,7.36,4.26,7.89,3.52l7.73,5.51,7.8,5.41,15.53,10.93c5.18,3.63,10.38,7.25,15.63,10.78,2.63,1.76,5.25,3.53,7.93,5.22s5.43,3.25,8.18,4.83L767.57,385c-1.77-1.14-3.54-2.28-5.27-3.5l-10.41-7.18c3.8,1.91,8.71,5,14.38,8.6s12.14,7.68,18.74,12l19.89,13.17c3.25,2.12,6.39,4.26,9.46,6.15S820.38,417.86,823.12,419.45Z"/><path class="cls-5" d="M1017.52,500.3c-1.15-3.2-2.27-6.52-3.37-9.92-.54-1.7-1.14-3.41-1.6-5.16s-.93-3.53-1.4-5.32q-1.36-5.37-2.74-10.85c-.83-3.67-1.52-7.4-2.28-11.11-3.07-14.85-5-29.91-7.29-43.49-.41-2-.61-4.1-.9-6.17s-.54-4.15-.81-6.24-.51-4.19-.77-6.29c-.14-1.06-.24-2.11-.3-3.18l-.24-3.18c-.29-4.26-.58-8.55-.87-12.84s-.21-8.61-.29-12.93l-.09-6.47c0-2.16.12-4.31.18-6.46q.21-6.46.44-12.87.49-6.4,1-12.72c.18-2.1.32-4.2.52-6.28s.51-4.15.76-6.21c.9.11,1.92,3,2.71.32,2.68-10.75,4.48-10.46,6.28-10.22.9.13-1,8.09.24,5.52-.48,4-1.08,9.43-1.19,12.82s.19,4.78,1,.77a51,51,0,0,0,1.43-8c.46-3.35,1-6.68,1.82-7.93,1.68-2.48,2.38,3,4,.55.19-1.33.35-3.33.72-5.3s.65-3.95.87-5.27c1.33-2.47,2.26,3.06,2.69.43.55-1.92,1-4,1.49-6.26s.83-4.6,1.38-7c1-4.87,2-10.06,3.08-15.26.44.11,1-.45,1.42-.36s.56.83.25,3.45A433.61,433.61,0,0,0,1019,409.63a466.59,466.59,0,0,0,35.72,134c3.81,9.81-1,3.38-5.44-3.36,1.48,2.24.24,2.79,1.72,5-.62.28-2-.56-3.78-2.68a36.32,36.32,0,0,1-3-4.16,43.24,43.24,0,0,1-3.31-6.23c.92,2.51,2.06,4.94,3.12,7.4.67,2.63-1.25.54-2.08.89-1.08-2.47-2.17-4.93-2.59-4.76l-1.67.7,4.35,9.91c-1.09-2.48-2.18-4.95-2.59-4.78l-1.67.72a44.88,44.88,0,0,1-1.93-4.08c-.65-1.48-1.16-3.11-1.74-4.7a88.55,88.55,0,0,0-3.46-8.88l-1.28.48c.78,2.63,2,5.81,3.32,9,.66,1.57,1.26,3.17,2,4.63s1.33,2.87,1.87,4.12c-1.51-2.33-1.93-2.15-2.77-1.8-.46-.92-.92-1.84-1.31-2.79s-.75-1.92-1.1-2.88l-2.07-5.81c-.69-1.94-1.41-3.86-2.22-5.75-.4-1-.84-1.88-1.29-2.81s-.87-1.87-1.37-2.78c.46,1.29.86,2.6,1.37,3.88l1.49,3.83a17.38,17.38,0,0,1-2.93-4.73c-.85-2-1.66-4.37-2.44-6.83s-1.54-5-2.29-7.43c-.38-1.21-.75-2.39-1.11-3.51S1017.86,501.27,1017.52,500.3Z"/><path class="cls-5" d="M1372.71,451c-19.61-16.8-41.81-39.49-61.77-56.88a453.79,453.79,0,0,1-35.54-34c-5.72-6.11-11.24-12.43-16.56-18.84l-3.92-4.86c-1.3-1.62-2.59-3.24-3.82-4.89l-3.74-4.91-3.59-5c.74-.52,3.42.86,2.22-1.58a37.9,37.9,0,0,1-2.67-5.71,11.11,11.11,0,0,1-.78-3.32,2.6,2.6,0,0,1,1.46-2.59c.76-.5,4.48,6.56,3.74,3.86,1.1,1.66,2.49,3.5,3.84,5.28s2.65,3.48,3.76,4.71c2.18,2.49,3.25,3.33,1.22-.09-.9-2.61-7.76-10.64-8.06-13.61s3.72.62,3.38-2.3c-.72-1.08-1.86-2.65-2.89-4.3l-2.8-4.35c-.62-2.65,3.69.71,2.3-1.46-3.33-7-8.9-15.53-13.45-24.67.41-.2.52-1,.87-1.17s1,.27,2.32,2.4c10.25,19.62,23.21,38,37.77,55.3s30.69,33.58,47.37,49.47,34,31.43,50.94,47.41,33.7,32.42,49.17,50c6.85,8.25.1,3.47-6.27-1.49,2.14,1.64,1.12,2.58,3.25,4.24-.51.45-2.07.08-4.43-1.35a52.57,52.57,0,0,1-9.38-7.49c1.84,1.89,3.62,3.83,5.43,5.75,1.46,2.24-1,.93-1.66,1.55-1.8-1.92-3.59-3.84-3.92-3.52l-1.32,1.25c1.78,1.91,5.38,5.71,7.13,7.66-1.75-1.95-3.56-3.83-3.89-3.53l-1.33,1.24c-1.94-1.75-4.07-4.21-6.26-6.63a69.26,69.26,0,0,0-6.37-6.55l-1,1c1.68,2,3.94,4.34,6.23,6.65s4.6,4.59,6.38,6.5c-2.11-1.6-2.44-1.28-3.1-.66-2.81-2.7-5.38-5.63-8-8.52a54,54,0,0,0-8.63-7.9c1.85,1.82,3.67,3.67,5.49,5.52C1386.66,466.46,1378.69,456.07,1372.71,451Z"/><path class="cls-6" d="M780.68,559.74c11-12.5,8.83-33.07-1.87-45.84s-27.8-18.66-44.42-19.85c-11.13-.79-23.6.86-30.86,9.33-4.16,4.87-7.13,12.16-13.5,12.81-12.56-38-45.24-70.37-84.83-76.23s-83.27,19.49-92.28,58.48c-1.4,6-2.52,13-7.8,16.21-3.48,2.1-7.82,1.9-11.89,1.72-13.72-.6-27.83-.06-40.6,5s-24.09,15.4-27.34,28.75,3.56,29.29,16.58,33.68c8.24,2.78,17.23.83,25.93,1s18.73,3.92,20.86,12.35c.7,2.77.43,5.71,1.12,8.48,1.71,6.9,8.67,11,15,14.22C534,635,568,650.49,598.63,638.41c16.2-6.39,28.83-19.91,37.17-35.2,15.73,30.62,55.18,39.68,89.6,39.84,16.29.08,32.92-1.14,48-7.36s28.43-18.15,33-33.77-1.55-34.69-16.07-42"/><path class="cls-7" d="M589.88,635.2a43.73,43.73,0,0,1-12,1.65c-.93,0-1.79-.07-2.54-.11a18.71,18.71,0,0,1-1.87-.25c-1-.18-1.35-.38-.83-.61-.48-.19-.95-.42-1.42-.63a65,65,0,0,0,7.18.09,64,64,0,0,0,8.86-.94c1.33-.19,2.49-.49,3.43-.63a12.43,12.43,0,0,1,2-.3c.36,0,.38.13-.05.41A14.31,14.31,0,0,1,589.88,635.2Z"/><path class="cls-8" d="M592.66,638.71c-6.44,1.34-1.62-.17-.63-.77a60.74,60.74,0,0,0,8.4-3c1.32-.37.33.32-1.49,1.22A47.38,47.38,0,0,1,592.66,638.71Z"/><path class="cls-7" d="M590.79,648.13c1-.11,2-.34,3-.51-3,.64-7.44,1.31-10.33,1.61-.28-.42,5.2-1.44,11-2.84a28.12,28.12,0,0,1-3.44,1.24C589.84,648,589.2,648.23,590.79,648.13Z"/><path class="cls-7" d="M477.87,584.13c-1.28.36.38,1.56,3,3.85a21.22,21.22,0,0,1,3.95,4.54,12.67,12.67,0,0,1,1.85,6.52,7,7,0,0,0-1.5-1.39c-.26-.19-.51-.36-.76-.52s-.56-.28-.82-.39a6.51,6.51,0,0,0-1-2.14,10.58,10.58,0,0,0-2.24-2.17,15.12,15.12,0,0,0-3.37-1.84,21.69,21.69,0,0,0-4.18-1.23,27,27,0,0,0-4.61-.5c-1.61,0-3.33,0-5,.12-3.47.2-7.06.53-10.6.53-2.73.2.59.46,2.77.57,1.09.07,1.91.12,1.62.24a27,27,0,0,1-5.2.44,2.13,2.13,0,0,1-1.2-.65,4.64,4.64,0,0,0-2.24-.66,56.48,56.48,0,0,1-7.11-.69,24.89,24.89,0,0,1-2.46-.49,14.83,14.83,0,0,1-2.53-.75A17.61,17.61,0,0,1,433,586a21.22,21.22,0,0,1-1.9-1.22c-.64-.51-1.35-1.07-2.11-1.71s-1.47-1.45-2.28-2.32l-1.15-1.45a15.7,15.7,0,0,1-1.18-1.62c-.38-.59-.77-1.2-1.17-1.84s-.72-1.37-1.1-2.09-.69-1.52-1-2.33l-.5-1.25-.42-1.33a35.46,35.46,0,0,1-.77-10,34.9,34.9,0,0,1,.77-9.58,42,42,0,0,1,3.18-8.91,47.79,47.79,0,0,1,11.45-14.57,57.92,57.92,0,0,1,15.54-9.65,75.91,75.91,0,0,1,17.22-4.79A112.73,112.73,0,0,1,484.85,510c2.83,0,5.64,0,8.43.12a31.08,31.08,0,0,0,6.65-.17,4.8,4.8,0,0,0,3.14-1.75,14.24,14.24,0,0,0,2.3-4.91c.67-2.17,1.14-4.66,1.92-7.44.39-1.39.75-2.77,1.24-4.11s.92-2.69,1.49-4c.86-3.95,3.93-11.36,9-18.34a82.78,82.78,0,0,1,8.34-10,118.12,118.12,0,0,1,8.69-8.07l.68.35c2.83-2.88,7.4-5.87,12.47-8.33a136.3,136.3,0,0,1,15.25-6c2.86-.73,5.76-1.29,8.66-1.75.88.08-.2.52-2.17,1.13s-4.8,1.56-7.44,2.59a45.73,45.73,0,0,0-6.37,2.94c-1.29.78-1.44,1.14.5.77,4.31-1.59,8.29-3,12.13-4.1s7.5-2.14,11.16-2.83c.91-.19,1.83-.35,2.74-.49s1.83-.29,2.74-.4c1.83-.19,3.67-.41,5.53-.44a49.19,49.19,0,0,1,11.43.86c7.61,1.25,10.91,2,13.53,2.52l3.86.72c1.39.31,3,.81,5.28,1.54,2.56.2-2.7-1.71-1.48-2.12l3,1.08,1.44.52c.46.19.91.41,1.35.6q2.65,1.21,5,2.34a20.31,20.31,0,0,1,2.22,1.19l2.06,1.21c1.32.79,2.58,1.52,3.74,2.29,2.25,1.63,4.25,3.12,6.09,4.55s3.37,3,4.94,4.47c.81.7,1.53,1.49,2.27,2.25s1.48,1.54,2.24,2.33,1.56,1.54,2.3,2.42l2.36,2.66c.81.92,1.7,1.84,2.58,2.85l2.71,3.25c2,2.21,3.93,4.86,6.28,7.76A19.73,19.73,0,0,1,677.9,483l2.12,2.44,1,1.17.88,1.07c1.09,1.3,1.82,2,1.59,1.07a17.76,17.76,0,0,0-1.14-2.63c-.71-1.33-1.83-3.1-3.35-5.51-1.08-1.43-2.32-2.75-3.52-4.09s-2.35-2.71-3.64-4c-1.43-2-2.85-4-4.33-6,1.43,1.52,3.09,3.43,4.83,5.35.9.94,1.66,2,2.47,3l2.32,2.88c.36.45.73.88,1.06,1.31s.62.85.91,1.23c.57.77,1.08,1.44,1.5,1.95.84,1,1.31,1.47,1.23,1a23.52,23.52,0,0,0,1,2.25c.39.86.87,1.81,1.4,2.82,1.07,2,2.44,4.25,3.68,6.72l2,3.73c.69,1.25,1.26,2.58,1.9,3.86.85,1.8.64,1.21.84,1.5a2.92,2.92,0,0,0,.28.3l.21.13s.09,0,.13-.07l.13-.11c.14-.14.2-.22.25-.17s.1.21,0,.61a3.37,3.37,0,0,1-1.14,2.06c-.29-1.06-.39-1.84-.57-2.38l-.11-.35c-.22-.5-.42-1-.62-1.45-.44-1-.87-1.94-1.29-2.84-.91-1.76-1.86-3.32-2.86-4.94-.51-.8-1-1.64-1.61-2.47l-2-2.59c1,1.72,2,3.41,2.88,5.18s1.78,3.49,2.62,5.23c.37.89.75,1.78,1.13,2.66l.56,1.32.13.32,0,.11.09.22c.25.61.45,1.29.67,2l.32,1,.09.27c0,.07,0,.23.13.18a4.46,4.46,0,0,0,.51-.07,4.1,4.1,0,0,0,1.79-.95,12.55,12.55,0,0,0,1.43-1.56l.34-.44.72-1c.52-.71,1.06-1.44,1.65-2.19.29-.37.59-.74.92-1.12a13,13,0,0,1,1-1.11l1.07-1.1c.36-.35.76-.67,1.14-1a29,29,0,0,1,4.9-3.36,37.65,37.65,0,0,1,10.56-3.64,67.3,67.3,0,0,1,20.44-.32c1.3,0,2.61-.07,3.92,0l2,0,2,.11c.16.62,3.4,1.7,7.93,3.53a78.93,78.93,0,0,1,15.54,8.22c1.19.68,2.37,1.55,3.52,2.36s2.16,1.72,3,2.42c1.67,1.51,2.73,2.38,2.32,1.59.29.16,0-.24-.75-1-.38-.39-.82-.92-1.41-1.45l-2-1.81a59.71,59.71,0,0,0-11.53-7.55c-4.08-2.12-7.77-3.43-9-4.12s.09-.78,5.76.86A65.64,65.64,0,0,1,770.36,499a54.38,54.38,0,0,1,9.09,7.42c.69.7,1.38,1.39,2,2.15s1.29,1.45,1.87,2.26l1.74,2.4,1.52,2.5a43.64,43.64,0,0,1,5.8,21.07,41.82,41.82,0,0,1-1.13,10,31.79,31.79,0,0,1-8.4,14.88,34.69,34.69,0,0,0,5.24-8.7,35.06,35.06,0,0,0,2.19-9.08,34.05,34.05,0,0,0-.38-9.32,34.66,34.66,0,0,0-3.17-9.62,41.8,41.8,0,0,0-4.31-8,42.67,42.67,0,0,0-2.78-3.64c-1-1.1-2-2.26-3.19-3.27a54.31,54.31,0,0,0-15.19-10,74.64,74.64,0,0,0-17.49-5.28,77.42,77.42,0,0,0-18.24-1.12c-6.06.45-12.22,1.91-17.33,5.3a24.2,24.2,0,0,0-6.43,6.37,80.51,80.51,0,0,1-5.23,7.15,13,13,0,0,1-3.44,2.81,9.22,9.22,0,0,1-2.08.8l-.55.11-.27,0c-.1,0-.2.06-.21-.06l-.39-1L688,511c-.28-.68-.53-1.36-.84-2l-.95-2c-.62-1.31-1.24-2.63-1.87-3.94s-1.38-2.53-2.06-3.79-1.39-2.51-2.13-3.72L677.83,492a12.16,12.16,0,0,0-1-2.67c-.61-1.16-1.38-2.52-2.05-3.74s-1.25-2.31-1.5-2.94-.17-.78.53-.16a35.88,35.88,0,0,0-2.48-3.59c-1.05-1.4-2.23-3-3.54-4.42s-2.5-2.92-3.5-4.21a16.45,16.45,0,0,1-2.27-3,122.72,122.72,0,0,0-22.25-16.51A99.8,99.8,0,0,0,613.35,440c-2.31-.53-4.65-.93-7-1.4-1.16-.26-2.34-.34-3.51-.51s-2.34-.24-3.5-.34a86.17,86.17,0,0,0-13.83.1,90,90,0,0,0-25.1,6c4.61-.61,0,1.19-6.19,4.46a101,101,0,0,0-9.68,5.92,55.76,55.76,0,0,0-7.21,6A54.21,54.21,0,0,0,526,471.17a68.88,68.88,0,0,0-9,15c-.29,1.16-2.36,7.34-1.28,6a42.72,42.72,0,0,1,3.59-8.39c.65-1.16,1.32-2.32,2.16-3.56s1.76-2.61,2.88-4.23c-.26,1.78-2.65,5.19-5.06,9.85a63.33,63.33,0,0,0-6,16.4l.29-3.13c.1-1,.25-2.06.37-3.1-.67,2.37-1.21,4.86-1.9,7.36a26,26,0,0,1-3,7.24,11,11,0,0,1-6.12,4.64,22,22,0,0,1-7.76.43,130.14,130.14,0,0,0-15.68-.62,62.6,62.6,0,0,0-14.34,2,98.74,98.74,0,0,1,15.28-.14A121.33,121.33,0,0,0,463.3,519a60.74,60.74,0,0,0-16.58,5.76,49.24,49.24,0,0,0-7.12,4.64,43.87,43.87,0,0,0-5.79,5.57,36.59,36.59,0,0,0-4.15,6.1,32.6,32.6,0,0,0-1.36,3.08l-.53,1.51-.39,1.48a39.74,39.74,0,0,1,6-10.31,44.27,44.27,0,0,1,9.07-8.48,39.39,39.39,0,0,1,8.52-4.6c2.28-.81,3.72-1,3.79-.5-.21.63-4.17,2.25-8.46,5A54.23,54.23,0,0,0,435,537.6a30.86,30.86,0,0,0-6.3,10.06c-.38.89-.6,1.83-.89,2.74s-.4,1.83-.57,2.75a26.85,26.85,0,0,0,8.9,23.82,20.4,20.4,0,0,0,8.56,4.18,41.54,41.54,0,0,0,10.1.7c3.55-.08,7.27-.33,11.17-.2a36.91,36.91,0,0,1,6,.65A28.88,28.88,0,0,1,477.87,584.13Z"/><path class="cls-7" d="M436.17,573.17a25.75,25.75,0,0,1-3.93-6c-.2-.46-.43-.87-.6-1.29l-.47-1.2c-.34-.75-.5-1.46-.74-2.08-.79-2.53-1.21-4-1.54-5.52a14.09,14.09,0,0,1-.36-2.4c0-.45-.06-.93-.06-1.48l.16-1.77a26,26,0,0,1,5.14-11.8c-.27.8.05.79.73.25s1.74-1.61,3.12-2.85a60.46,60.46,0,0,1,4.91-4c1.85-1.33,3.83-2.57,5.64-3.62a39.38,39.38,0,0,1,11.81-5.3,76.91,76.91,0,0,1,12.37-2.25c2.57-.16,3.69.13,2.93.54s-3.4.88-8.19,1.73a45.15,45.15,0,0,0-17.74,5.28,38.8,38.8,0,0,0-13.84,12.7,30,30,0,0,0-3.66,8.16,16.84,16.84,0,0,0-.49,2.08,15.56,15.56,0,0,0-.29,2,14.15,14.15,0,0,0-.12,2.06,15.9,15.9,0,0,0,.05,2.07A28.87,28.87,0,0,0,436.17,573.17Z"/><path class="cls-8" d="M454.56,585.25a26.63,26.63,0,0,1-7.68-.61,13.75,13.75,0,0,1-3.63-1.49c-1-.51-1.83-1.15-3.22-1.89a39.16,39.16,0,0,1-5.73-4.09c1.26.71,2.19,1.36,3.17,1.91s1.88,1.13,3,1.82c2.26,1.18,5.57,2.67,12,2.67a37.82,37.82,0,0,1-7.37,0A41.62,41.62,0,0,0,454.56,585.25Z"/><path class="cls-7" d="M475.23,519.82c2.22-.2,5.2-.34,8.44-.31s6.72.23,10,.53c1.66.15,3.37.29,5,.3a24.93,24.93,0,0,0,4.77-.41,20.48,20.48,0,0,0,3.63-1.06c.91-.34,1.46-.59,1.67-.5.86-.54.68-.2,1.06-.3a3.68,3.68,0,0,0,1.13-.76,15.11,15.11,0,0,0,1.09-1.12,15.45,15.45,0,0,0,1.36-1.88,17.68,17.68,0,0,1-3.79,3.93,16.58,16.58,0,0,1-6.39,2.93,25.57,25.57,0,0,1-6.69.52c-1,0-2-.1-3-.18l-2.75-.22C483.56,520.68,477,520.58,475.23,519.82Z"/><path class="cls-8" d="M436,529.11a44.29,44.29,0,0,1,6.67-5.3,51.25,51.25,0,0,1,9.5-4.86A83.83,83.83,0,0,0,436,529.11Z"/><path class="cls-7" d="M487,516.94c-.9-.52,1.06-.58,3.56-.44s5.56.51,6.91.45a18.75,18.75,0,0,0,5.7-.42,21.8,21.8,0,0,1-8.59,1C491.77,517.43,489.12,517.23,487,516.94Z"/><path class="cls-7" d="M536.93,465.22a23.21,23.21,0,0,1,2.46-2c.45-.3.56-.3.45-.11-.21.37-1.33,1.49-2.31,2.64-.49.57-1,1.11-1.33,1.54a3.8,3.8,0,0,0-.56.84c0,.08.24-.08.79-.59s1.5-1.31,2.89-2.55a77.08,77.08,0,0,0-6,6.15c-1.09.43-2.21.86-3.27,1.37A69.86,69.86,0,0,1,536.93,465.22Z"/><path class="cls-7" d="M553.44,455a43.85,43.85,0,0,1,12.35-5.81c-1,.6-2,1.18-3,1.8C560.68,452.12,557.8,452.54,553.44,455Z"/><path class="cls-7" d="M537.62,461.68a17.54,17.54,0,0,1,4.41-3.41,32.89,32.89,0,0,0,3.5-1.72,20.11,20.11,0,0,1-2.69,2c-1.18.9-2.61,1.81-3.75,2.66C536.77,462.88,535.25,463.84,537.62,461.68Z"/><path class="cls-7" d="M596.05,431.2c-3.32.52-8.28.72-14,1.48a83.56,83.56,0,0,0-18,4.26,104.31,104.31,0,0,1,15-4.36A68.42,68.42,0,0,1,596.05,431.2Z"/><path class="cls-7" d="M664.24,622.61a42.75,42.75,0,0,0,13.31,5.78c-.79-.44-1.57-.88-2.33-1.36A82,82,0,0,1,664.24,622.61Z"/><path class="cls-7" d="M602.69,628.12c-1.91,1.93-1,1.66,1.58.35A86.75,86.75,0,0,0,615,621.33a59.79,59.79,0,0,0,8.72-9.81c.34-.45.65-.9,1-1.37l.74-1.07c.28-.41.56-.85.84-1.29,1.13-1.74,2.17-3.66,3.27-5.52l3.25-5.86,1.59-2.93.8-1.46a11.66,11.66,0,0,1,.79-1.37l3.8,6.62,2,3.46,2,3.31,1,1.66c.35.52.72,1,1.08,1.5s.73.93,1.09,1.4l.71.87c.8.89,1.56,1.81,2.39,2.66a56.33,56.33,0,0,0,6.4,4.71,58.71,58.71,0,0,1-7.16-7.2c-.29-.36-.61-.7-.88-1.08l-.63-.83c-.31-.41-.63-.78-.94-1.24a66.68,66.68,0,0,1-3.63-5.94l-.91-1.58-.91-1.68-1.83-3.39c-1.19-2.19-2.4-4.41-3.61-6.65q-2.83,4.95-5.75,10c-1,1.75-2,3.42-3,5.08l-1.51,2.52c-.51.83-1,1.6-1.58,2.39l-1.31,1.83c-.25.36-.51.7-.78,1-.54.68-1.05,1.38-1.6,2l-1.65,2-1.7,1.91A71.08,71.08,0,0,1,602.69,628.12Z"/><path class="cls-8" d="M596.32,639.21a42.53,42.53,0,0,0,8-3.23,52.07,52.07,0,0,0,7.51-4.85,81,81,0,0,0,11-10.51,77.3,77.3,0,0,1-7.63,7.14,68.17,68.17,0,0,1-8.87,6.1,59.15,59.15,0,0,1-16.9,6.51C588.4,641,593.65,640,596.32,639.21Z"/><path class="cls-7" d="M788.93,616.31a49.13,49.13,0,0,1-10.35,8,66.17,66.17,0,0,1-13.42,5.91c-9.72,3.12-20.44,4.51-30.19,5.8,4.54,0,6.85,0,9.78-.11a79.44,79.44,0,0,0,13.3-1.54c-4.85,2.08-10.3,2.81-16,2.93s-11.8-.27-18.24-.32c10.52.39-3.32,1.52-12.27.84a161.16,161.16,0,0,1-30.36-5.93A94.24,94.24,0,0,1,665,625.22a65.26,65.26,0,0,1-13.91-9.81,31.53,31.53,0,0,1-2.55-2.31c-.48-.45-.93-1-1.43-1.52l-.76-.83-.86-1.07a60.7,60.7,0,0,1-4.86-7.39c-.79-1.39-1.6-2.8-2.4-4.22l-2.28-4.15a1.68,1.68,0,0,0-.21.18l-.22.38-.42.75-.85,1.5-1.7,3c-1.14,2-2.25,3.94-3.34,5.7L627.6,608c-.54.81-1.05,1.6-1.56,2.31l-1,1.43-.83,1.16c-2.08,2.92-3.14,4.54-1.8,3.86a42.42,42.42,0,0,1-10.72,9.44,102.52,102.52,0,0,1-10.12,5.24,43.13,43.13,0,0,1-20.12,6.22,66.6,66.6,0,0,1-20.4-2.22,170.54,170.54,0,0,1-20.22-6.87c-6.89-2.72-14.07-5.77-22-8.87,1.19-.06-2-1.88-6.23-4.14l-6.53-3.49a39.5,39.5,0,0,1-4.64-2.93,14.93,14.93,0,0,1-3.05-2.86,7.42,7.42,0,0,1-.94-1.51,5.29,5.29,0,0,1-.27-.76,4.45,4.45,0,0,1-.21-.9c-.12-.76-.19-1.9-.32-3.4a23.21,23.21,0,0,0-1-5.44c-.16-.49-.32-1-.51-1.47s-.43-.93-.65-1.39a19.65,19.65,0,0,0-1.54-2.59,25,25,0,0,0-1.8-2.23,25.49,25.49,0,0,0-2-1.83,26,26,0,0,0-7.63-4.36,26.89,26.89,0,0,0-5.71-1.43,6.7,6.7,0,0,0-2.73,0c-.32.16,0,.41,1.05.89a47.22,47.22,0,0,1,10.09,4.18,23.19,23.19,0,0,1,5.6,4.53,18.39,18.39,0,0,1,4,7.31,48.14,48.14,0,0,1,1,6.86,9.14,9.14,0,0,0,.46,2,8.32,8.32,0,0,0,.77,1.7c1.32,2.24,3.92,4.47,6.71,6.52,2.42,1.77,4.12,2.86,5,3.51s.82.79.18.58a32.27,32.27,0,0,1-3.54-1.56,41.37,41.37,0,0,1-5.38-3.16,17.75,17.75,0,0,1-4.72-4.66A11,11,0,0,1,493,605a17.7,17.7,0,0,1-.56-3.07,21.8,21.8,0,0,0-1.34-6.34,7.74,7.74,0,0,0-1-1.85c-.3-.4-.51-.6-.63-.57a12.08,12.08,0,0,1,.72,1.44,9.6,9.6,0,0,1,.43,1.53,14.88,14.88,0,0,1,.23,3.5,35,35,0,0,0,.06,4.52,10.48,10.48,0,0,0,2.61,5.76,14.17,14.17,0,0,1-2.8-5.33,10.32,10.32,0,0,0-.65-2.19c-.26-.36-.52,1.28-.33,3.33a14.63,14.63,0,0,0,.75,3.12,10.28,10.28,0,0,0,.53,1.35c.17.41.32.77.45,1,.23.55.27.84,0,.67a7.07,7.07,0,0,1-2-2.27,19.07,19.07,0,0,0,3.16,4.51,27.51,27.51,0,0,0,3.44,3.12,57.27,57.27,0,0,0,6,4c3.47,2.06,5.84,3.46,7.85,4.73,4,2.5,6.36,4.38,12.5,8.54,8,3.36,11.21,3.92,12.89,4s1.94-.58,4.42-.2c8.8,2.58,16.68,4.92,24.58,6.33s15.84,1.85,23.91.08c-2.93,1.27-2.74,1.73-.34,1.73A44.15,44.15,0,0,0,600,643.7a62.83,62.83,0,0,0,16.4-9.08,82.31,82.31,0,0,0,12.72-12.17c.7-.85,1.37-1.62,2-2.36l1.58-2.1c.25-.33.47-.64.68-1s.46-.68.46-.7l.3-.55a9.44,9.44,0,0,0,.68-2c.15-.62.27-1.21.41-1.89.07-.33.15-.69.26-1.08l.19-.63.12-.34.06-.17.07.06a15.48,15.48,0,0,1,1.51,1.93c.36.53.85,1.14,1.39,1.89.27.38.58.73.93,1.19.12.15.24.31.37.46s.28.38.44.55c.31.37.64.74,1,1.12a11.9,11.9,0,0,1,1.45,2.32c0,.25-.37,0-1-.45s-1.57-1.37-2.6-2.37L639,616l-.19-.21-.12-.1-.38-.34c-.24-.19-.46-.4-.66-.58-.84-.75-1.36-1.26-1.53-1s0,1.11.3,2.29l.87.7a2.21,2.21,0,0,1,.17.16l.53.61c.36.4.74.77,1.11,1.16.75.77,1.48,1.54,2.27,2.25a58.37,58.37,0,0,0,9.78,6.09c3.36,1.71,6.92,3.3,11.15,5.07,2.4,1.28,5.49,2.67,8,3.75s4.45,1.86,4.47,2.11c-5.09-1.57-6.94-2-6.29-1.29s3.87,2.62,9.2,4.67c2.6.56,4.22.87,5.51,1.05a30.56,30.56,0,0,0,3.53.35c-5.14-2.1-6.22-3-4.86-2.74s5.22,1.3,10.27,2.36a143.4,143.4,0,0,0,17.23,2.58,84.69,84.69,0,0,0,15.36.07c11-.59,17.94-1.23,22.86-1.58s7.84-.36,10.78-.41a43,43,0,0,0,10.8-1.29,55.46,55.46,0,0,0,8.9-3.12,58.22,58.22,0,0,0,12.15-7.48c-1.61.8-2.5,1-2.7.85s.2-.63,1.09-1.43a114.15,114.15,0,0,0,9-8.63,51.22,51.22,0,0,0,9.45-15,42,42,0,0,0,1.41-4.13c.19-.69.33-1.38.49-2a17.88,17.88,0,0,0,.37-2,31.26,31.26,0,0,0,.37-6.71A53.42,53.42,0,0,0,808,577.79a40.84,40.84,0,0,0-4.41-11,40.41,40.41,0,0,0-6.09-5.88c-.63-.48-1.31-.88-1.92-1.29a12.12,12.12,0,0,0-1.77-1,12.41,12.41,0,0,0-2.35-1,38.43,38.43,0,0,0,2.45,3.09c.49.64,1,1.31,1.6,2l1.69,2.41a39.25,39.25,0,0,1,5.59,13.73,41.59,41.59,0,0,1,.68,9,34.25,34.25,0,0,1-1.66,9.57,37.83,37.83,0,0,1-4.6,9.28,43.37,43.37,0,0,1-7.39,8.34C789.31,615.7,788.85,616.27,788.93,616.31Z"/><path class="cls-6" d="M1099.71,456.19c-4.23-15.4,6.31-33.24,21.83-37s33,7.38,36.24,23c13-17.41,16-43.95,35.76-53.07,14.22-6.57,31-.6,44.48,7.45,17.51,10.5,34.43,29.64,28.23,49.08,6.52,2.61,13.41-2.1,20.09-4.26,13.15-4.24,28,2.05,37.19,12.33s13.84,23.84,17.17,37.25c1.65,6.69,2.9,14.3-.92,20-2.71,4.06-7.44,6.27-12.06,7.85a81.19,81.19,0,0,1-67.47-7.32c-4-2.45-8.5-5.39-13.09-4.29-2.83.67-5.06,2.77-7.23,4.7-34.53,30.53-91.9,30.69-126.6.35-6.53-5.71-12.43-12.41-20.22-16.22-3.89-1.9-8.16-3-11.8-5.37a20.51,20.51,0,0,1,12.76-37.69"/><path class="cls-7" d="M1234.62,523.34l1.93-1.41,2.08-1.57c1.43-1,2.81-2.14,4-3.06l1.68-1.22a10,10,0,0,1,1.17-.73c.6-.3.89-.27.8.09.35,0,.69-.06,1-.07-.32.23-.79.6-1.47,1.18s-1.61,1.38-2.61,2.19a71.62,71.62,0,0,1-6.21,4.59,20.42,20.42,0,0,1-4.18,2.25C1232.24,525.7,1232.68,525.15,1234.62,523.34Z"/><path class="cls-8" d="M1231.18,520.71c4.24-2.5,1.28-.19.76.59-.94.65-1.93,1.2-2.9,1.79s-1.94,1.17-3,1.69c-1,.3-.3-.29,1-1.15S1230.06,521.57,1231.18,520.71Z"/><path class="cls-7" d="M1228.53,512l-1.61.83a23.68,23.68,0,0,0,2.68-1.57c.9-.62,1.78-1.26,2.47-1.78.2.14-.29.8-1.21,1.68A20.14,20.14,0,0,1,1227,514C1227.48,513.28,1230.33,511.32,1228.53,512Z"/><path class="cls-7" d="M1322.55,522.94c.55-.85-.9-1.35-3.4-1.62-1.26-.19-2.8-.32-4.49-.41-.86-.09-1.76-.17-2.68-.23s-1.88-.11-2.86-.22c.9-.82,1.77-1.7,2.61-2.6a23.57,23.57,0,0,0,2.4,0c.88,0,1.82-.18,2.82-.32l1.53-.23,1.58-.36c1.07-.27,2.2-.48,3.31-.86,4.55-1.3,9.13-3.3,11.54-5.74.72-1.09-.43-.07-1.43.42-.48.26-.91.4-.83.23s.66-.65,1.63-1.79c.69-.27.82.52,1.8-.41a5.52,5.52,0,0,0,.71-2.91,7.14,7.14,0,0,0-.13-1.06c-.05-.33-.11-.67-.19-1.08-.14-.8-.23-1.8-.47-3.59a86.9,86.9,0,0,0-1.61-8.61c-.11-2-.26-3.94-.44-5.91a80.1,80.1,0,0,0-8.64-20.26,47.51,47.51,0,0,0-6.5-8.34,38.52,38.52,0,0,0-8-6.21,30.32,30.32,0,0,0-18.36-4.32c-.74.08-1.46.25-2.2.35l-2.14.58c-1.47.48-3.1,1.14-4.87,1.85l-1.35.53-1.56.59c-.8.32-1.57.55-2.36.79l-1.17.36-1.17.26a19.74,19.74,0,0,1-8.7.14,26.37,26.37,0,0,1-4.11-.78l-1.31-.35c-.21-.06-.48-.12-.66-.18l-.43-.2-.91-.41-.49-.22-.68-.28c.44-1.73.89-3.56,1.37-5.45.27-1,.42-1.88.61-2.83.09-.48.19-1,.28-1.44a2,2,0,0,0,.06-.62l0-.57c0-.38,0-.77,0-1.16l0-.58a1.53,1.53,0,0,0,0-.34c0-.38-.07-.76-.1-1.15-.12-.78-.23-1.56-.42-2.34a25.69,25.69,0,0,0-1.52-4.56,26,26,0,0,0-2.19-3.93l.5-.49a84.75,84.75,0,0,1-5.18-6.85,42.26,42.26,0,0,0-6.55-7.26c-1.21-1.33-2.46-2.64-3.79-3.89-.5-1.08,2.75,1.11,5.53,3.35s5.15,4.42,4.06,2a42.58,42.58,0,0,0-12.4-9.73c-2.1-1.16-4.23-2.2-6.36-3.3s-4.26-2.2-6.46-3.51a28.94,28.94,0,0,0-8.3-2.73l-2.44-.25c-.88,0-1.91-.15-3.34-.23-.78.25-.33.47.2.72s1.16.59.8.92a43.56,43.56,0,0,0-11.56-.23,18.93,18.93,0,0,0-2.12.31c-.34.06-.68.1-1,.17l-1,.24a22.85,22.85,0,0,0-3.58,1.07,22.42,22.42,0,0,0-6.8,4,28.88,28.88,0,0,0-3.5,3.66,40.27,40.27,0,0,0-3.57,5.41c0,.43-1.47,4.28-1.94,6.52-.24,1.12-.26,1.8.23,1.39s1.47-1.93,3.34-5c.88-2.09,1.81-4.11,2.85-6a36.58,36.58,0,0,1,3.25-2.93,42.35,42.35,0,0,0-4.94,7.2c-1.37,2.52-2.16,4.56-1.56,4.24-1.37,1.24-2.92,4.05-4.4,7.42s-2.93,7.29-4.26,10.58c-.09.2-.17.41-.25.61s-.29.65-.43,1l-.93,2c-.61,1.27-1.17,2.46-1.72,3.44s-1,1.89-1.41,2.54-.73,1.14-1,1.43c-.44.58-.47.36,0-.83s1.39-3.41,2.57-6.72c.5-.89,1-1.74,1.45-2.58l.32-.62.21-.37.39-.71c.49-.91.94-1.75,1.33-2.53.79-1.56,1.4-2.89,1.91-4.13a60.53,60.53,0,0,0,2.49-7.6l-4,8.27q-1,2.08-2,4.12c-.34.69-.68,1.37-1,2.05l-.68,1.33-.83,1.56c-.55,1-1.11,2.06-1.69,3l-.86,1.47-.88,1.38-.88,1.36-.89,1.27-1.77,2.48c-1.18,1.63-2.35,3.22-3.58,4.85l-.45.6c-.07.08-.17.25-.21.25l-.14,0-.55.1-.55.08-.28,0a4.5,4.5,0,0,0-.44.25c-.62-2.2-1.2-4.43-1.84-6.5-.31-1-.63-2.06-.94-3.09l-.47-1.52a3.38,3.38,0,0,0-.25-.67l-.27-.59c-.35-.78-.7-1.57-1.06-2.35l-.52-1.16a7.81,7.81,0,0,0-.62-1,5.09,5.09,0,0,0-.34-.47l-.33-.41-.39-.5a6.91,6.91,0,0,0-.81-1,27.28,27.28,0,0,0-7.93-6.16l-2.33-.42c-.77-.09-1.55-.13-2.3-.2a.8.8,0,0,0-.29-.54,5.19,5.19,0,0,0-.89-.6,15.75,15.75,0,0,0-1.42-.7c-.56-.19-1.2-.38-1.9-.57a20.2,20.2,0,0,0-10.37.26c-3.06,1.2-6.59,3.57-5.42,3.48-.1.18.17.06.71-.23s1.4-.68,2.42-1.14a23.41,23.41,0,0,1,7.42-1.77h1.83a13.86,13.86,0,0,1,1.59.17,12.16,12.16,0,0,1,1.24.21,4.31,4.31,0,0,1,.78.31c.35.18.34.34-.15.46-.24.07-.6.07-1.09.17s-1.1.19-1.86.27a22.06,22.06,0,0,0-11.24,2.81,28.4,28.4,0,0,0-8.83,8.14,29.17,29.17,0,0,0-4.61,10.31,28.52,28.52,0,0,0-.55,9.59,25.61,25.61,0,0,1-.58-11.35,44,44,0,0,1,3.62-11.72,12.08,12.08,0,0,1,1.06-1.61c.38-.51.74-1.05,1.14-1.55a31,31,0,0,1,2.66-2.84,27.06,27.06,0,0,1,6.4-4.53l1.81-.82a18.77,18.77,0,0,1,1.87-.66,25.47,25.47,0,0,1,3.88-.92c.66-.11,1.33-.13,2-.19l1-.08c.33,0,.67,0,1,0l2,.06,2,.27a13.69,13.69,0,0,1,2,.38c.65.17,1.32.29,2,.5a32.3,32.3,0,0,1,3.8,1.45,33.42,33.42,0,0,1,3.61,1.88c.59.34,1.13.76,1.7,1.14a16,16,0,0,1,1.63,1.21l1.57,1.31,1.44,1.44.72.72.65.79c.41.51.92,1.08,1.33,1.66a30,30,0,0,1,2.23,3.76c.31.66.7,1.28,1,2l.79,2a5.15,5.15,0,0,1,.38,1l.32,1,.16.51.07.25,0,.13s0,.14.06.06l.69-1c.92-1.31,1.76-2.66,2.57-4a84.58,84.58,0,0,0,4.23-8.24c2.5-5.49,4.58-11.07,6.81-16.48.61-.38,1.94-2.45,3.1-4.06s2.17-2.75,1.89-1.45c1-1.15,2.37-3.54,4-5.66s3.41-3.91,4.54-4.27a29.41,29.41,0,0,1,6.89-5.72,26.82,26.82,0,0,1,8.65-3.26,38.91,38.91,0,0,1,19,1.57,77.06,77.06,0,0,1,17.3,8.13,79.49,79.49,0,0,1,13.89,10.85c-1.58-2.83,1.21-.9,4.68,2.69a55.33,55.33,0,0,1,5.06,6.23c1.54,2.18,2.78,4.28,3.61,5.64a64.87,64.87,0,0,1,2.28,9.09,31.62,31.62,0,0,1,.37,5.39,28.1,28.1,0,0,1-.64,5.42,15,15,0,0,1-.38,1.7l-.11.42c0,.05-.08.16,0,.18l.21.06.82.27a22.65,22.65,0,0,0,3.18-.07c1.19-.16,2-.5,1.68-.77a8.58,8.58,0,0,1-3.84-.22l-.74-.28-.18-.07c0-.05,0-.13,0-.19l.13-.4c.17-.52.37-1,.51-1.59a21.78,21.78,0,0,0,.87-4.72c.54.74.62,2.06.13,4a10.41,10.41,0,0,1-.38,1.26l-.11.34-.06.18,0,.08.07,0,.61.27a8.21,8.21,0,0,0,2.79.62,13,13,0,0,0,3.17-.3,25.31,25.31,0,0,0,3.26-1,31.09,31.09,0,0,1-3.7,2.12c3.18-.82,6.63-2.35,10.23-3.45a29,29,0,0,1,11.11-1.1,39.05,39.05,0,0,1,10.44,2.57,84.35,84.35,0,0,1,9,4.21,40.16,40.16,0,0,0-8.94-6.17,35.71,35.71,0,0,1,11.06,5.83,43.56,43.56,0,0,1,8.87,9.18c5,6.75,8,14,10.9,19.17a62.78,62.78,0,0,0-3.32-8.29,71.82,71.82,0,0,0-4.58-8.07c-3.17-4.82-6.22-8.06-5.42-8.65.58-.13,3.22,2.13,5.64,5.43a47.32,47.32,0,0,1,5.8,10.28c2.42,6.07,4.25,11.81,5.93,17.33.84,2.78,1.61,5.45,2.36,8.16a48.72,48.72,0,0,1,1.62,8.48,21.43,21.43,0,0,1-1,9.13,16.52,16.52,0,0,1-5.66,7.73,25.7,25.7,0,0,1-7.9,4,35.06,35.06,0,0,1-4.06,1A35.43,35.43,0,0,1,1322.55,522.94Z"/><path class="cls-7" d="M1347.81,497.51a43.79,43.79,0,0,0-1.43-6.94c-.51-1.77-1-3.06-1.39-4.16a26.31,26.31,0,0,0-2.21-4.47,33.54,33.54,0,0,1-2.25-4.28c-.94-2-2-5-4.11-9.7,1,1,.71-.95-.39-3.9a43.32,43.32,0,0,0-5.34-9.78q-1.76-2-3.69-4c-.68-.67-1.33-1.37-2-2s-1.4-1.32-2.11-1.95a45.42,45.42,0,0,0-8.7-6.11c-1.84-1.1-2.58-1.78-1.81-1.82s3.06.6,6.69,3a77.73,77.73,0,0,1,6,5.53c1,1,1.91,2.06,2.87,3.1s1.8,2.14,2.63,3.26a72.18,72.18,0,0,1,4.78,7,80.26,80.26,0,0,1,4,7.39,95,95,0,0,1,5.74,15.1c.72,2.49,1.3,4.9,1.79,7.31A41.87,41.87,0,0,1,1347.81,497.51Z"/><path class="cls-8" d="M1336.75,514.39a20.79,20.79,0,0,0,2.35-2.27c.62-.66,1.07-1.26,1.47-1.76s.71-.94,1-1.31l.81-1.1c.24-.36.47-.73.71-1.17a8.74,8.74,0,0,0,.58-1.61,14.53,14.53,0,0,0,.18-5.78,10,10,0,0,1,.31,6.06,20.15,20.15,0,0,1-1.39,3.95,18.19,18.19,0,0,1-3.73,5.21,15.11,15.11,0,0,0,2.81-5.25A14.68,14.68,0,0,1,1336.75,514.39Z"/><path class="cls-7" d="M1311.17,440.58a58.49,58.49,0,0,0-6.25-2.39,47.22,47.22,0,0,0-7.8-1.66c-5.2-.67-9.8,0-10.22-.56-.57.1-.43-.15-.66-.25a1.62,1.62,0,0,0-.79,0c-.22.05-.51.12-.87.23s-.74.27-1.23.48l1.35-.38,1.68-.39a35,35,0,0,1,4-.66,35.73,35.73,0,0,1,9.15.34,32,32,0,0,1,7.79,2.49C1309.38,438.87,1310.77,439.87,1311.17,440.58Z"/><path class="cls-8" d="M1328.53,464.43c-.49-.74-1-1.48-1.52-2.23s-1.08-1.54-1.68-2.35a50.67,50.67,0,0,0-4.44-5.3A28.76,28.76,0,0,1,1328.53,464.43Z"/><path class="cls-7" d="M1301.83,440.09c.26.33.05.41-.45.39a17,17,0,0,1-2.17-.32l-2.77-.41c-.89-.06-1.69-.11-2.16-.11-.67-.09-1.33-.06-2-.09l-1,0-1,.07a23.41,23.41,0,0,1,6.11-.59,26.81,26.81,0,0,1,3,.36A18.32,18.32,0,0,1,1301.83,440.09Z"/><path class="cls-7" d="M1268.93,424.84c-.87-2.47-1.08-3.07-.79-2.83a14.48,14.48,0,0,1,1.55,2.5,20.7,20.7,0,0,0,1.22,2.31c.12.07,0-1-1.21-4a39.32,39.32,0,0,1,2.44,7.12c-.33,1-.67,2-1.08,3A36.24,36.24,0,0,0,1268.93,424.84Z"/><path class="cls-7" d="M1262.06,410.45c-2.14-2.07-4.17-4.23-7.72-7.95.82.5,1.65,1,2.45,1.53C1258.34,405.23,1259.49,407.29,1262.06,410.45Z"/><path class="cls-7" d="M1266.05,423.59c-.58-1-1-1.8-1.25-2.38a9.68,9.68,0,0,1-.54-1.42,11.77,11.77,0,0,0-1-2.83,18.14,18.14,0,0,1,2.85,5.4,10,10,0,0,1,.59,2.23C1266.74,424.91,1266.56,424.69,1266.05,423.59Z"/><path class="cls-7" d="M1228.38,400.41a14,14,0,0,1,3.51,1.15,41.61,41.61,0,0,1,4.17,2.31,107.12,107.12,0,0,1,9,6.56,60.18,60.18,0,0,0-7.79-5.13c-1.23-.71-2.46-1.4-3.91-2.19S1230.28,401.42,1228.38,400.41Z"/><path class="cls-7" d="M1165.7,541.32a116.26,116.26,0,0,0-11.86-1.5l2.06.84,2.45.27,2.45.17C1162.44,541.24,1164.07,541.29,1165.7,541.32Z"/><path class="cls-7" d="M1224.75,531.21c1.69-1.69.85-1.48-1.4-.54-1.12.48-2.61,1.15-4.35,1.75-.87.31-1.78.66-2.75.94s-2,.54-3,.78c-5.24,1.76-10.6,3.48-16.09,4.8a83,83,0,0,1-16.6,2.42l-3.35.49c-1.12.16-2.24.25-3.37.38l2.6.14c.9,0,1.84,0,2.82,0,1.94.05,4-.06,6.16-.15a102.2,102.2,0,0,0,13.64-1.73,97,97,0,0,0,13.75-3.84A83,83,0,0,0,1224.75,531.21Z"/><path class="cls-8" d="M1228.28,520.67c-3.42,1.81-7.3,3.92-11,5.81l-2.76,1.36-2.65,1.18c-1.69.78-3.3,1.3-4.63,1.78a88.79,88.79,0,0,0,14.26-5.57,93.17,93.17,0,0,0,11.39-6.65c.25-.38-.46-.07-1.44.45l-1.6.88C1229.28,520.2,1228.73,520.46,1228.28,520.67Z"/><path class="cls-7" d="M1073.83,494.68l1.34,1.13,1.46,1.06a29,29,0,0,0,3,1.82c2,1.07,4,1.89,5.73,2.63a47.61,47.61,0,0,1,4.62,2.1,35.53,35.53,0,0,1,4,2.54c2.71,2,5.48,4.45,8.44,7,1.48,1.27,3,2.56,4.6,3.8s3.32,2.38,5,3.45c-1.34-1.22-2.35-2.16-3.2-3s-1.52-1.61-2.29-2.44c-1.52-1.63-3.33-3.7-6.92-7.07,3.44,1.68,6.25,4.54,9.3,7.69s6.49,6.61,10.74,9.28c-6.51-5,2.7.63,8.89,3.56a87.91,87.91,0,0,0,22.27,8.66,105.89,105.89,0,0,0,27.2,2.94c1-.12,2.17-.18,3.57-.29l4.65-.4c3.33-.35,7-.8,10.33-1.49,6.63-1.3,11.65-3.18,9.66-3.56,5.07-1.61,8-2.43,10.66-3.09a44.1,44.1,0,0,0,8.7-2.93c5-3.34,9.72-6.49,14.23-9.78l3.34-2.51a34.16,34.16,0,0,1,2.89-2.08,5.78,5.78,0,0,1,2.09-.85,3.31,3.31,0,0,1,1.4.2,18.65,18.65,0,0,1,4.52,2.57c1,.67,2,1.44,3.23,2.24s2.49,1.61,3.79,2.35a53.23,53.23,0,0,0,17.73,6.29c-.47.18,0,.5,1,.91.51.2,1.17.42,1.92.65a22.47,22.47,0,0,0,2.53.67l2.87.61c1,.2,2,.31,3,.46s1.88.29,2.74.37l2.26.21c.7,0,1.47.13,2.28.18l2.58.09c1.8.09,3.76,0,5.76,0,1,0,2-.12,3-.2s2-.17,3-.29l3-.45,1.42-.23,1.38-.29a43.62,43.62,0,0,0,8.32-2.51c1.69-.83,2.09-1.37.55-1.45-3.82.38-9.26,1.95-15.41,2.79s-12.92,1-18.55-.34c-4.84-1.19-5.88-1.82-4.87-1.85.51,0,1.55.05,2.94.18l2.3.22,2.69.15c1.87.16,3.92.12,5.91.13s4-.16,5.68-.34a41,41,0,0,0,4.24-.71c1-.29,1.66-.57,1.67-.81a7,7,0,0,1-2,.21c-.68,0-1.41-.15-2.31-.23a60.53,60.53,0,0,0-8.48,0,35.26,35.26,0,0,0,4.83-.38,3.68,3.68,0,0,0,1.67-.44c.27-.26-.93-.48-2.39-.74l-2.21-.38a12,12,0,0,1-1.71-.48c-.77-.32-.62-.62,1.58-.85-2.45-.22-4.57-.37-6.39-.68-.92-.15-1.77-.24-2.55-.4l-2.16-.45a31.65,31.65,0,0,1-3.44-.87c-1-.3-1.83-.53-2.58-.83a41,41,0,0,1-8.9-5l-1.86-.58-1.56-.54c-1-.31-1.75-.54-2.42-.7a8.37,8.37,0,0,0-2.71-.45c-1.2.05-1.55.68-3.22.25-1.41-.67-2.75-1.32-4.09-2.12s-2.69-1.57-4.11-2.29a19.2,19.2,0,0,0-4.61-1.73,11.8,11.8,0,0,0-5.29,0,14.68,14.68,0,0,0-4.64,2.06,41.45,41.45,0,0,0-3.48,2.62c-1,.81-2.07,1.61-3.09,2.45s-2.09,1.61-3.12,2.47c2.28-3.69-1.46-1.21-7.44,2.19a100.94,100.94,0,0,1-20.63,9c-1,.26-1.83.51-2.6.74L1199,527c-1.23.35-2.15.68-2.89.92a10.47,10.47,0,0,0-2.77,1.45,10.08,10.08,0,0,1-3,1.34,21.09,21.09,0,0,1-3.25.64c-.7.1-1.47.22-2.35.29l-3,.18c-2.18-.24-2.16-.59-1.11-.87s3.12-.68,5.09-1.12a20.3,20.3,0,0,0,4.48-1.32c.66-.4.13-.57-2.66-.65-2.54.51-5.11.89-7.7,1.2-4.92,1.32-9,2.73-15.28,2.87-3.65-.39-9.07-1.41-9.11-1.91,3.57.45,4.85.25,4.34-.27s-2.8-1.32-6.3-2.52c-1.73-.13-2.78-.34-3.65-.41s-1.51-.09-2.36-.14c3.26,1.81,4,2.41,3.08,2.37a16.72,16.72,0,0,1-2.56-.55c-1.19-.34-2.66-.86-4.33-1.43-3.28-1.26-7.23-2.94-10.86-4.76s-7-3.63-9.41-4.71l-2.39-1.34-2.09-1.35c-1.34-.85-2.47-1.73-3.49-2.52a41.59,41.59,0,0,1-4.74-4.28A37,37,0,0,1,1106,502a26.77,26.77,0,0,0-5.09-6.06,28.78,28.78,0,0,0-5.86-3.92c-2.61-1.34-5.77-2.32-8.9-3.57.79.76,1.19,1.23,1.15,1.47s-.47.25-1.22.08a13.8,13.8,0,0,1-2.92-1.15,19.21,19.21,0,0,1-1.75-1.07,18.56,18.56,0,0,1-1.77-1.53,18.91,18.91,0,0,1-5.05-9.37,22.37,22.37,0,0,1-.5-5.07,25.16,25.16,0,0,1,.48-4.07,13.88,13.88,0,0,1,5.06-7,17,17,0,0,1,6.2-2.79,15,15,0,0,1,4.25-1.67c.85-.23,1.67-.32,2.34-.46a4.49,4.49,0,0,0,1.41-.29c-.93-1-2.92-2-6-2.24a16.92,16.92,0,0,0-5.28.54,21.26,21.26,0,0,0-6.19,2.71,22.27,22.27,0,0,0-6,5.71,23,23,0,0,0-3.83,9.1,27.38,27.38,0,0,0,5.85,22.2A5,5,0,0,0,1073.83,494.68Z"/><path class="cls-6" d="M176.16,575.68c25.29,2.53,49.05-23.81,43.93-48.71s-37.34-39.73-59.59-27.42c-6.14-16.94-15.39-33.73-30.67-43.26S92.11,447,80.47,460.73c-1.68,2-3.21,4.27-5.56,5.38-3.6,1.69-7.79.07-11.53-1.3-28.39-10.41-62-5.1-85.81,13.57C-32.91,486.6-41.87,498-43.11,511.29c-2,21.6,16.34,39.54,34.83,50.87C22.89,581.25,60.64,592,96.41,584.48c21.13-4.43,42-15,63.21-11.23"/><path class="cls-7" d="M-19.21,479c.1-.92-1.26-1-3.47-.39a30.17,30.17,0,0,0-8.23,4.22c.1-1.19.22-2.41.39-3.6,1.23-.77,2.65-1.82,4.25-3s3.4-2.41,5.23-3.79c.9-.71,1.9-1.32,2.88-2l3-2c2-1.16,4-2.38,6-3.33,1.42-.9-.53-.29-1.82.22-.65.24-1.16.41-1,.22a3.16,3.16,0,0,1,.7-.56l.82-.55,1.23-.67c1-.11.65.7,2.39.14.84-.48,1.5-.89,2.06-1.27a16.21,16.21,0,0,0,1.43-.94c.81-.58,1.41-1.1,2.29-1.69a14.25,14.25,0,0,1,1.61-1c.66-.31,1.46-.65,2.46-1s2.19-.84,3.68-1.23,3.24-.81,5.32-1.26l5.76,0a100.9,100.9,0,0,1,43.77,2.24l2.67.82,1.33.4,1.19.41a21.2,21.2,0,0,0,3.88,1,5.38,5.38,0,0,0,1.14.05,2,2,0,0,0,.54-.17,1.64,1.64,0,0,0,.5-.34A10.38,10.38,0,0,0,73.79,459l1.55-1.9c.62-.75,1.39-1.5,2.08-2.24l1.08-1.1,1.18-1a30.35,30.35,0,0,1,2.4-1.87,36.22,36.22,0,0,1,10.64-5c2.4-1.43,7.63-2.86,13.39-3a60.57,60.57,0,0,1,16.54,2v.71a18.91,18.91,0,0,1,4.51,1.25c.8.35,1.61.74,2.44,1.16a25.77,25.77,0,0,1,2.44,1.46,53.91,53.91,0,0,1,4.59,3.31c1.39,1.2,2.8,2.28,4,3.34,1.35,1.4,2.55,2.91,3.76,4.38.18.59-.47.18-1.52-.65l-1.83-1.51-2.18-1.68a25.78,25.78,0,0,0-3.87-2.44c-.92-.38-1.23-.25-.44.79,4.55,3.84,8.29,7,11.68,10.41a38.09,38.09,0,0,1,8.29,11.51c2.32,4.24,3.3,6.1,4.25,7.5l1.36,2.05a29.46,29.46,0,0,1,1.7,3c1.25,1.13-.14-2.05.84-1.8.33.76.66,1.48,1,2.16a4.59,4.59,0,0,1,.17.48,3.89,3.89,0,0,1,.12.49l.05.27,0,.14v.07h0a3,3,0,0,1,.73,0,3.71,3.71,0,0,1,.44,0l.25,0h0s0,0-.05,0l-.06,0h.06l.12,0,.48-.07a40,40,0,0,1,7.15-.46,80.48,80.48,0,0,1,17.34,2.45,10.27,10.27,0,0,1,2.71.22c1.36.23,3,.52,4.09.74s1.85.2,1.41-.28-2-1.53-5.62-2.9a48.94,48.94,0,0,0-7.29-1A50,50,0,0,0,181,488.7a58.07,58.07,0,0,1,10,1.54c3.11.74,5.33,1.45,4.9.86,1.58,1.24,4.61,2.7,7.9,4.54a67.07,67.07,0,0,1,9.55,6.34,28.53,28.53,0,0,1,5.11,5.07c.23.38.1.44-.5.09-.3-.18-.72-.45-1.27-.83l-2.12-1.37a42.35,42.35,0,0,0-4.31-4.4c-.66-.55-1.27-1.07-1.87-1.51s-1.19-.83-1.75-1.2a27.11,27.11,0,0,0-7.42-3.15,46.07,46.07,0,0,1,21.48,20.85,39.65,39.65,0,0,1,3.92,13.58,42.79,42.79,0,0,1-.82,13.38,41.23,41.23,0,0,1-.26,5.31c-.3,0-.75.48-1.3,1.33s-1.26,2-2.14,3.34a74.64,74.64,0,0,1-6.7,9.1c-.51.7-1.09,1.44-1.65,2.13s-1.14,1.32-1.61,1.85c-1,1-1.52,1.72-.93,1.55-.19.39,1.16-.62,2.93-2.39a54.08,54.08,0,0,0,5.64-6.76c1.74-2.4,3-4.64,3.61-5.32.31-.34.47-.3.39.3a16.1,16.1,0,0,1-1.11,3.55,48.89,48.89,0,0,1-21.53,19.34,40.52,40.52,0,0,1-12.56,3.4,32.48,32.48,0,0,1-10.69-.67,37.88,37.88,0,0,0,12.07-1A29,29,0,0,0,198.85,572a49.71,49.71,0,0,0,8.91-7.21,48.85,48.85,0,0,0,7.09-9.08,41.5,41.5,0,0,0,6.35-22,35,35,0,0,0-2.08-11.3,36.37,36.37,0,0,0-5.58-9.87A40.68,40.68,0,0,0,196,499.86a5.49,5.49,0,0,0-1.4-1.17c-.71-.43-1.58-.9-2.36-1.32-1.58-.8-2.81-1.45-1.59-1.51a14.52,14.52,0,0,0-2.63-.94c-1.1-.26-2.33-.55-3.57-.73s-2.45-.35-3.48-.57a7.36,7.36,0,0,1-2.42-.66,44,44,0,0,0-9.44,1.4c-.79.2-1.56.46-2.34.69-.57.19-1.14.43-1.73.65s-1.14.51-1.72.76-1.13.59-1.7.89c-.24.23-.26-.12-.35-.29l-.24-.59-.47-1.2-1-2.41-.52-1.21-.65-1.49c-.43-1-.92-2-1.37-3a110,110,0,0,0-6.21-11.48c-4.56-7.29-10.09-13.74-16.19-18.27.84,1.28.57,1.5-.34,1.09s-2.52-1.39-4.44-2.53c-1-.5-2-1.09-3.14-1.62s-2.23-1-3.35-1.4-2.18-.75-3.17-1-1.85-.39-2.54-.48a27.1,27.1,0,0,0-9.75-2,41.22,41.22,0,0,0-10.95,1.22,18.72,18.72,0,0,1-2.35,1.14c-.91.41-1.54.92-1,1a8.64,8.64,0,0,1,1.56-.59l1.4-.42a14.81,14.81,0,0,1,2.52-.47,22.37,22.37,0,0,1,2.58-.22c.94,0,2-.14,3.19-.07a3,3,0,0,1-1,.45,8.39,8.39,0,0,1-1.51.36c-.57.11-1.23.13-1.93.25s-1.46.23-2.26.33A28.4,28.4,0,0,0,88,455.87a13.63,13.63,0,0,1,1.44-1.3L91,453.32a41.78,41.78,0,0,0-8.24,5,50.1,50.1,0,0,0-3.65,3.5A15.68,15.68,0,0,1,75.39,465c-2.75,1.51-5.84.68-8.72-.29a53.42,53.42,0,0,0-8.73-2.47c1.48.7,2.93,1.45,4.37,2.17s2.82,1.55,4.32,2.24c-3.45-1-6.82-2.27-10.41-3.27a90.1,90.1,0,0,0-10.83-2.49c-7.21-1.18-14.2-1.26-19.21.1a126.78,126.78,0,0,1,15.65.26c1.23.16,2.38.32,3.41.48l1.45.25c.45.11.86.23,1.23.34,1.48.46,2.3.92,2.14,1.38-.18.23-1,.28-2.09.2l-4.28-.38c-.82-.08-1.67-.18-2.52-.29L38.6,463c-1.68-.14-3.25-.34-4.49-.4s-2.67-.21-4-.28-2.61,0-3.89.08c-.64,0-1.28,0-1.9.1l-1.88.22c-1.24.16-2.47.29-3.67.51a68.79,68.79,0,0,0-7,1.68l-3.36,1-3.23,1.22C-3.4,470.42-10.9,474.67-19.21,479Z"/><path class="cls-7" d="M7.86,469.16l1.46-.49,1.34-.37c.86-.24,1.62-.47,2.31-.69,1.37-.46,2.48-.75,3.38-1.06a31.17,31.17,0,0,0,3.78-1.62c2-.84,3.94-2.05,12.44-2.09-1.06.52.49,1,3,1.34,1.23.24,2.69.48,4.18.68l1.13.14,1.11.19,2.14.33c5.38.08,11.62,1.87,16,3.49,3,1.2,2.07,2.23-3.76.35-7-3.17-15.89-4.11-24.42-3.65l-1.6.07-1.6.16-3.16.31c-1.05.09-2.08.3-3.11.44s-2.06.26-3.06.44Z"/><path class="cls-8" d="M-8.48,469.56A23,23,0,0,1-4,467.73a8.84,8.84,0,0,1,2.56-.31,10.37,10.37,0,0,0,2.5-.3,17,17,0,0,0,1.83-.59c.74-.23,1.59-.53,2.62-.94a9.79,9.79,0,0,1-2.17,1.26,18.81,18.81,0,0,1-2.25.81c-.85.25-1.84.52-3.1.91s-2.71,1.07-4.56,1.94l4-2.64C-4.5,468.43-6.5,468.94-8.48,469.56Z"/><path class="cls-7" d="M62.48,468c1.37.45,3.25,1.22,5.66,1.8a16.48,16.48,0,0,0,4.07.47,11.73,11.73,0,0,0,4.48-1,14.57,14.57,0,0,0,3.5-2.24c.9-.75,1.58-1.41,2.16-1.91,1.14-1,1.83-1.4,2.16-1.22.57-.44.28.88,1.89-1.18L85,464a24.12,24.12,0,0,0-1.94,2.08,23.14,23.14,0,0,1-3.26,3.07,12.29,12.29,0,0,1-5.24,2.34,12.61,12.61,0,0,1-2.77.22,14,14,0,0,1-2.36-.28,16.59,16.59,0,0,1-3.56-1.14A8.17,8.17,0,0,1,62.48,468Z"/><path class="cls-8" d="M38.6,457.59c.84,0,1.68,0,2.55,0s1.77.13,2.72.22l3.05.33c1.08.14,2.23.39,3.5.6l-2.64-.26c-.92-.09-1.9-.09-2.89-.16s-2-.16-3.06-.31S39.7,457.8,38.6,457.59Z"/><path class="cls-7" d="M70.89,467.56c-.55-.58.72-.41,2.32-.67a8,8,0,0,0,2.43-.74,7.51,7.51,0,0,0,1.66-1.09A23.58,23.58,0,0,0,80,462.72a13.17,13.17,0,0,1-3.91,4A7.12,7.12,0,0,1,70.89,467.56Z"/><path class="cls-7" d="M114.67,454.35c1.88.47,2.27.76,2,.83a15.44,15.44,0,0,1-2.14,0,5,5,0,0,0-1.85.06c0,.06.12.11.56.23s1.14.33,2.22.57l-2.52-.45-2.53-.26c-.57-.61-1.16-1.13-1.78-1.71l1.52.08,1.51.18,1.51.19C113.67,454.13,114.17,454.25,114.67,454.35Z"/><path class="cls-7" d="M125.07,459.56a14.24,14.24,0,0,1,3.11,1.48c.55.36,1.15.74,1.78,1.22s1.27,1.07,2,1.72l-2-.82a11.45,11.45,0,0,1-1.94-1.51,14.05,14.05,0,0,0-1.25-1C126.25,460.28,125.7,459.92,125.07,459.56Z"/><path class="cls-7" d="M116.87,452.58a8.45,8.45,0,0,1,3.28,1.08,11,11,0,0,0,2,1.44,7.58,7.58,0,0,1-2-.64c-.84-.34-1.82-.68-2.63-1s-1.47-.62-1.69-.79S115.89,452.41,116.87,452.58Z"/><path class="cls-7" d="M155.29,470.81a19.25,19.25,0,0,1-2.71-2.8c-1-1.13-2-2.5-3.24-3.88a53.84,53.84,0,0,0-8.51-8.5,82.09,82.09,0,0,1,7.7,6.68A50.93,50.93,0,0,1,155.29,470.81Z"/><path class="cls-7" d="M30.06,572.65a23,23,0,0,0,4.85,1.69,25,25,0,0,0,4.31.77l-1.55-.85C35.15,573.71,32.59,573.28,30.06,572.65Z"/><path class="cls-7" d="M-12.24,550.44c-3.67-.9,1.44,2.27,6.53,6.7,7.5,5,16.39,8.24,24.5,11.71l5.3,1.21c-4.83-2.1-11.37-5.24-18-8.79l-4.95-2.72-4.84-2.8C-6.78,553.91-9.69,552.13-12.24,550.44Z"/><path class="cls-7" d="M112.94,572.08c-5.56,1.68-12.13,3.4-18.6,4.67s-13.13,2.06-19.13,3.19c5.58,0,5.76.67,14.49-.2a16.9,16.9,0,0,1-4.88,1.42,24.23,24.23,0,0,1-2.58.27c-.87,0-1.76,0-2.66,0-1.79-.06-3.61-.12-5.49-.34q-1.41-.14-2.85-.21c-1-.05-1.93-.07-2.92-.15,1.61.22,2.29.29,2.32.45s-.61.31-1.62.4-2.41.14-3.9.17c-.74,0-1.52,0-2.27,0l-2.2-.15c-1.31-.2-2.72-.41-4.21-.61l-4.66-.84c-1.63-.24-3.3-.63-5-1s-3.49-.71-5.27-1.21-3.6-.87-5.41-1.42l-5.44-1.62-5.36-1.84c-1.78-.6-3.49-1.34-5.19-2-3.07-.78-9.16-3.68-14.15-6.15-2.47-1.29-4.69-2.43-6.2-3s-2.26-.79-1.86,0A47.55,47.55,0,0,1-6.76,559a37.8,37.8,0,0,1-2.9-2.45c-.81-.8-1.54-1.57-2.39-2.39s-1.76-1.75-3-2.79a41.36,41.36,0,0,1-10.45-8.88,42.56,42.56,0,0,1-6.7-10.78,46.65,46.65,0,0,1-3.33-11.49,26,26,0,0,1-.37-2.94,29.45,29.45,0,0,1-.19-3,52.83,52.83,0,0,1,.12-6.37c.21.33.49,0,.83-.61.17-.33.33-.75.53-1.22s.45-1,.67-1.59a41.09,41.09,0,0,1,3.47-6.5A49.78,49.78,0,0,1-26,492.05a79.33,79.33,0,0,1,6-6.12c2-1.85,3.79-3.31,4.73-4.38s1.07-1.64-.13-1.42a20.47,20.47,0,0,0-4.6,2.81,44.35,44.35,0,0,0-4.88,4.63c-3.24,3.5-6.16,7.53-8.84,10.89-2.28,2.93-2.83,3.71-2.75,2.89a21,21,0,0,1,2.58-5.62,64.21,64.21,0,0,1,5.41-7.53c1.76-2.18,3.12-3.77,2.84-4.18a11.6,11.6,0,0,1-2.88,2.16,17.14,17.14,0,0,0-4.87,5.27c2.13-3.14,3.06-4.38,3-4.75s-1,.2-2,1-2.23,1.81-2.9,2.2-.85.11.18-1.7a56.92,56.92,0,0,0-6.36,8.54l-.94,1.59-.76,1.42c-.5.88-.86,1.67-1.23,2.38s-.71,1.38-1,2-.69,1.3-1,2a36.14,36.14,0,0,0-2.24,5.69,35.65,35.65,0,0,0,.12,3.94,27.09,27.09,0,0,0,.51,2.68,6.09,6.09,0,0,0,1.17,2.67c.78,1,1.43.86,2.19,2.36A86.34,86.34,0,0,0-38,538.65a45.71,45.71,0,0,0,9.36,11.9c-1.92-.81-2.23-.39-1.43.88a17.13,17.13,0,0,0,2,2.46c.92.94,2,2.07,3.32,3.19A84.6,84.6,0,0,0-15.66,564c1.63,1.11,3.31,2.11,4.86,3.06l4.34,2.5c6.72,3.85,8.21,3.81,9.77,3.85a9.42,9.42,0,0,1,3.07.55c.76.23,1.67.62,2.88,1.1s2.69,1.12,4.53,2c3.41,2.28-.53,1.1-4.22,0a34.74,34.74,0,0,0-4.32-1.18c-.74,0-.46.44,1.8,2l7.18,2.52c2.47.35,4.72.53,7.05.78a66.91,66.91,0,0,1,7.61.92c1.62.48,3.64,1.09,5.26,1.63s2.87.92,2.87,1.17c-.82-.15-1.51-.25-2.09-.31a9.07,9.07,0,0,0-1.34-.14c-.66,0-.86.15-.66.44A6,6,0,0,0,34.74,586a42.85,42.85,0,0,0,4,1.61,24.77,24.77,0,0,0,5.78.24c-6.38-3-2.81-2.28,3.51-.85,1.59.34,3.38.62,5.22,1s3.77.56,5.65.74a41.14,41.14,0,0,0,9.74.05c14-1.08,17.53-1.23,21.34-.42a32.79,32.79,0,0,0,6.91.32,59.71,59.71,0,0,0,14-3.41c-4.43-.18-.15-1.77,6.14-3.82,3.15-1,6.82-2.14,10.21-3.1,1.7-.51,3.34-.92,4.8-1.37s2.78-.77,3.82-1.14c1.82-.31,3.35-.53,4.72-.63s2.55-.1,3.66,0,2.15.19,3.22.31,2.17.38,3.4.58a40.19,40.19,0,0,1,4.55-.18,13.62,13.62,0,0,0,3.76-.08,8.51,8.51,0,0,0-1.86-1.67,14.27,14.27,0,0,0-3.14-1.71c-.63-.27-1.31-.54-2-.81s-1.52-.45-2.35-.68-1.72-.46-2.65-.61-1.9-.31-2.93-.46a74.73,74.73,0,0,0-13.95-.23c-5.14.34-10.64,1.11-16.28,2C113.39,571.8,112.9,572,112.94,572.08Z"/></g><g id="Layer_1" data-name="Layer 1"><ellipse class="cls-2" cx="120.39" cy="628.24" rx="91.85" ry="94.97"/><path class="cls-9" d="M-.37,664.45a99.19,99.19,0,0,1,16.16-20.2A46.22,46.22,0,0,1-.37,635.06Z"/><path class="cls-4" d="M10.4,612.08a58.59,58.59,0,0,1,36.81,12.48,84.62,84.62,0,0,1,21.32-4.76c7.94-13,12.74-29.85,12.74-48.26,0-41.17-24-74.55-53.58-74.55-10.29,0-19.9,4-28.06,11V613A63.28,63.28,0,0,1,10.4,612.08Z"/><path class="cls-4" d="M15.79,644.25a90.28,90.28,0,0,1,31.42-19.69A58.59,58.59,0,0,0,10.4,612.08,63.28,63.28,0,0,0-.37,613v22.06A46.22,46.22,0,0,0,15.79,644.25Z"/><path class="cls-10" d="M15.79,644.25A99.19,99.19,0,0,0-.37,664.45v36.86a63.28,63.28,0,0,0,10.77.92c29.43,0,53.29-20.18,53.29-45.07a39.76,39.76,0,0,0-7.24-22.7c-8.31,7.37-18.18,11.64-28.76,11.64A39.36,39.36,0,0,1,15.79,644.25Z"/><path class="cls-10" d="M56.45,634.46A64.46,64.46,0,0,0,68.53,619.8a84.62,84.62,0,0,0-21.32,4.76A47.48,47.48,0,0,1,56.45,634.46Z"/><path class="cls-10" d="M47.21,624.56a90.28,90.28,0,0,0-31.42,19.69,39.36,39.36,0,0,0,11.9,1.85c10.58,0,20.45-4.27,28.76-11.64A47.48,47.48,0,0,0,47.21,624.56Z"/><path class="cls-3" d="M157,768H251a74,74,0,0,0-97.93-102.91,107.12,107.12,0,0,1,14.93,55A107.88,107.88,0,0,1,157,768Z"/><path class="cls-10" d="M113,730.86a74,74,0,0,1,40.07-65.77c-16.4-27.48-44.72-45.64-76.92-45.64-2.58,0-5.12.12-7.64.35a64.46,64.46,0,0,1-12.08,14.66,39.76,39.76,0,0,1,7.24,22.7c0,24.89-23.86,45.07-53.29,45.07a63.28,63.28,0,0,1-10.77-.92V768H123A73.72,73.72,0,0,1,113,730.86Z"/><path class="cls-10" d="M113,730.86A73.72,73.72,0,0,0,123,768h34A107.88,107.88,0,0,0,168,720.09a107.12,107.12,0,0,0-14.93-55A74,74,0,0,0,113,730.86Z"/></g></svg>