<svg xmlns="http://www.w3.org/2000/svg" viewBox="0 0 847.75 500.61"><defs><style>.cls-1{fill:#ffe600;}.cls-2{font-size:45.6px;}.cls-13,.cls-2{font-family:Comfortaa-Regular, Comfortaa;}.cls-13,.cls-3{fill:#8517ac;}.cls-4{letter-spacing:-0.03em;}.cls-13,.cls-5{font-size:38px;}.cls-5{font-family:FreightSansProBook-Regular, FreightSans Pro;}.cls-6{letter-spacing:0em;}.cls-7{letter-spacing:0.01em;}.cls-8{letter-spacing:-0.02em;}.cls-9{letter-spacing:-0.04em;}.cls-10{letter-spacing:-0.03em;}.cls-11{letter-spacing:0.02em;}.cls-12{letter-spacing:0em;}.cls-14{letter-spacing:-0.03em;}</style></defs><title>rating-system</title><g id="Layer_2" data-name="Layer 2"><g id="Layer_1-2" data-name="Layer 1"><polygon class="cls-1" points="33.06 29.99 47.78 0 62.63 29.93 95.7 34.67 71.83 58.04 77.54 90.96 47.94 75.47 18.39 91.08 23.97 58.14 0 34.86 33.06 29.99"/><polygon class="cls-1" points="150.86 29.99 165.59 0 180.43 29.93 213.51 34.67 189.63 58.04 195.35 90.96 165.74 75.47 136.2 91.08 141.78 58.14 117.8 34.86 150.86 29.99"/><polygon class="cls-1" points="264.86 29.99 279.59 0 294.44 29.93 327.51 34.67 303.63 58.04 309.35 90.96 279.74 75.47 250.2 91.08 255.78 58.14 231.81 34.86 264.86 29.99"/><polygon class="cls-1" points="382.67 29.99 397.39 0 412.24 29.93 445.32 34.67 421.44 58.04 427.15 90.96 397.55 75.47 368 91.08 373.59 58.14 349.61 34.86 382.67 29.99"/><text class="cls-2" transform="translate(1.27 184.07)"><tspan class="cls-3">Anme<tspan class="cls-4" x="134.11" y="0">l</tspan><tspan x="145.6" y="0">delser</tspan></tspan><tspan class="cls-5"><tspan x="0" y="91.2">“Det er en rigtig god legeplad</tspan><tspan class="cls-6" x="440.5" y="91.2">s</tspan><tspan x="455.02" y="91.2">”</tspan><tspan x="0" y="182.41">“Børnene har det sj</tspan><tspan class="cls-6" x="291.16" y="182.41">o</tspan><tspan class="cls-7" x="311.15" y="182.41">v</tspan><tspan x="327.64" y="182.41">t”</tspan></tspan></text><text class="cls-2" transform="translate(635.89 184.07)"><tspan class="cls-3"><tspan class="cls-8">A</tspan><tspan x="31.15" y="0">d</tspan><tspan class="cls-9" x="63.39" y="0">r</tspan><tspan x="82.45" y="0">esse</tspan></tspan><tspan class="cls-5"><tspan class="cls-10" x="0" y="82.08">K</tspan><tspan x="19.46" y="82.08">obbe</tspan><tspan class="cls-11" x="96.33" y="82.08">r</tspan><tspan class="cls-6" x="110.43" y="82.08">v</tspan><tspan x="126.35" y="82.08">ej 21</tspan><tspan class="cls-6" x="0" y="127.68">2</tspan><tspan x="16.53" y="127.68">730 Herl</tspan><tspan class="cls-12" x="143.83" y="127.68">e</tspan><tspan x="161.88" y="127.68">v</tspan></tspan></text><text class="cls-13"><tspan x="0.32" y="489.63">Indsend din anme</tspan><tspan class="cls-14" x="356.5" y="489.63">l</tspan><tspan x="366.08" y="489.63">delse</tspan></text></g></g></svg>